# xmcd CD database file
#
# Track frame offsets:
#	150
#	11204
#	24094
#	37314
#	47576
#	61890
#	70318
#	81596
#	92330
#	105007
#	115435
#	124297
#	134366
#	147045
#	158839
#	171058
#
# Disc length: 2360 seconds
#
# Revision: 0
# Processed by: cddbd v1.5.2PL0 Copyright (c) Steve Scherf et al.
# Submitted via: CDex 1.51
#
DISCID=d3093610
DTITLE=Diverse - Country and Western Hits CD 9
DYEAR=1900
DGENRE=Country
TTITLE0=Singing the blues_Marty Robbins
TTITLE1=Hillbilly Fever_Red Foley
TTITLE2=Country boy_Little JImmy Dickens
TTITLE3=Mister Sandman_Chet Atkins
TTITLE4=That's how much I love you_Eddy Arnold
TTITLE5=The right key but the wrong keyhole_Hardrock Gunter
TTITLE6=Oklahoma Honky Tonk girl_Sheb Wooley
TTITLE7=How long will it take_Lefty Frizell
TTITLE8=Mean mean son of a gun_Johnny Horton
TTITLE9=How much are you mine_Ferlin Husky
TTITLE10=If I cry_Hank Thompson
TTITLE11=I just love the way you tell a lie_Don Gibson
TTITLE12=Pan American_Hank Williams
TTITLE13=My dear old Arizona home_Patsy Montana
TTITLE14=Tennesse Moon_Cowboy Copas
TTITLE15=Back in the saddle again_Gene Autry
EXTD=
EXTT0=
EXTT1=
EXTT2=
EXTT3=
EXTT4=
EXTT5=
EXTT6=
EXTT7=
EXTT8=
EXTT9=
EXTT10=
EXTT11=
EXTT12=
EXTT13=
EXTT14=
EXTT15=
PLAYORDER=
